# xmcd CD database file
#
# Track frame offsets:
#	150
#	19233
#	34536
#	58844
#
# Disc length: 1008 seconds
#
# Revision: 0
# Processed by: cddbd v1.5.2PL0 Copyright (c) Steve Scherf et al.
# Submitted via: cdripper 1,0,33,916
#
DISCID=2c03ee04
DTITLE=Cross Canadian Ragweed - Mission California (Sony Connect Acoustic Tracks 12-5-05)
DYEAR=2007
DGENRE=Country
TTITLE0=Cold Hearted Woman
TTITLE1=Final Curtain
TTITLE2=Fightin' For
TTITLE3=Dimebag
EXTD=YEAR: 2007
EXTT0=
EXTT1=
EXTT2=
EXTT3=
PLAYORDER=
